<?xml version="1.0" encoding="utf-8"?>
<!-- Generator: Adobe Illustrator 24.0.0, SVG Export Plug-In . SVG Version: 6.00 Build 0)  -->
<svg version="1.1" id="Layer_1" xmlns="http://www.w3.org/2000/svg" xmlns:xlink="http://www.w3.org/1999/xlink" x="0px" y="0px"
	 viewBox="0 0 512 512" style="enable-background:new 0 0 512 512;" xml:space="preserve">
<style type="text/css">
	.st0{fill:#FFFFFF;}
	.st1{fill:#556389;}
	.st2{fill:#0C2057;}
	.st3{fill:#3D4D79;}
	.st4{fill:#243668;}
	.st5{fill:#0C2057;stroke:#55606B;stroke-width:4;stroke-miterlimit:10;}
</style>
<g id="XMLID_42_">
	<g id="XMLID_51_">
		<g id="XMLID_53_">
			<path id="XMLID_54_" class="st0" d="M245.2,2.1c-4,1.4-7.4,4.2-10.3,7.2C163.8,80.5,92.7,151.6,21.7,222.9
				c-3.1,3.2-6.5,6.2-9.2,9.8c-1.1,1.9-2.1,3.8-3.2,5.7c0.1,1.6-1.1,2.8-1,4.4c-0.3,7.8-0.1,15.6-0.1,23.4c0,41.4-0.1,82.8,0,124.2
				c0,32.3-0.1,64.6,0,96.9c1.5,12,12,22.1,24,23.6c28.6,0,57.2,0,85.8,0c91.6,0,183.2,0,274.8,0c27.2,0,54.4,0,81.6,0
				c15.1,1.2,29.5-12.9,28.3-28c0-76.6,0-153.2,0-229.8c-0.1-4.7,0.5-9.5-1.3-14c-1.8-6.8-7.6-11.3-12.3-16.1
				c-52.2-52.3-104.6-104.6-156.7-157c-1.5-2.1-3.5-3.6-5.2-5.5C310,43.4,293,26.4,275.9,9.3c-4-4.1-9-7.4-14.7-8.5
				c-2.1-1.3-4.9-0.4-7.3-0.7C250.8-0.3,248,1.1,245.2,2.1z"/>
		</g>
		<path id="XMLID_38_" class="st0" d="M230.6,167.6c8.3-8.2,16.3-16.6,24.8-24.6c11.7,12,23.7,23.8,35.6,35.7
			c33.9,33.9,67.8,67.8,101.7,101.7c0,40.2,0.1,80.5,0,120.7c-91.6,0-183.1,0-274.7,0c-0.1-40.2,0.1-80.4-0.1-120.6
			C155.4,242.8,193.1,205.3,230.6,167.6z"/>
	</g>
	<g id="XMLID_49_">
		<path id="XMLID_36_" class="st1" d="M245.2,2.1c2.8-1,5.7-2.3,8.7-2c2.4,0.3,5.2-0.6,7.3,0.7c5.7,1.1,10.7,4.4,14.7,8.5
			C293,26.4,310,43.4,327.1,60.5c1.7,1.8,3.7,3.4,5.2,5.5c-19.2,19.6-38.7,38.7-57.9,58.2c-6.3,6.3-12.5,12.7-18.9,18.8
			c-8.5,8-16.5,16.4-24.8,24.6c-37.6,37.7-75.2,75.2-112.7,113c-17.5,17.8-35.2,35.3-52.8,53c-19,19-37.9,38-57,56.9
			c-0.1-41.4,0-82.8,0-124.2c0-7.8-0.1-15.6,0.1-23.4c-0.1-1.6,1.1-2.8,1-4.4c1.1-1.9,2.1-3.8,3.2-5.7c2.7-3.6,6.1-6.6,9.2-9.8
			C92.7,151.6,163.8,80.5,234.9,9.3C237.8,6.2,241.1,3.4,245.2,2.1z"/>
	</g>
	<g id="XMLID_47_">
		<path id="XMLID_35_" class="st2" d="M274.3,124.2c19.3-19.4,38.8-38.6,57.9-58.2c52.1,52.4,104.4,104.7,156.7,157
			c4.7,4.8,10.4,9.3,12.3,16.1c1.8,4.5,1.2,9.3,1.3,14c0,76.6,0,153.2,0,229.8c1.2,15.1-13.3,29.2-28.3,28c-27.2,0-54.4,0-81.6,0
			c-0.1-36.6,0-73.2-0.1-109.8c0.1-40.2,0-80.5,0-120.7c-33.9-33.9-67.8-67.8-101.7-101.7c-11.8-11.9-23.8-23.7-35.6-35.7
			C261.8,136.8,268,130.4,274.3,124.2z"/>
	</g>
	<g id="XMLID_45_">
		<path id="XMLID_33_" class="st3" d="M65.1,333.5c17.6-17.7,35.3-35.2,52.8-53c0.2,40.2,0,80.4,0.1,120.6
			c-0.1,36.6,0,73.2-0.1,109.8c-28.6,0-57.2,0-85.8,0c-11.9-1.5-22.5-11.6-24-23.6c-0.1-32.3,0-64.6,0-96.9
			C27.2,371.6,46.1,352.5,65.1,333.5z"/>
	</g>
	<g id="XMLID_43_">
		<path id="XMLID_32_" class="st4" d="M118,401.1c91.6,0,183.1,0,274.7,0c0.1,36.6,0,73.2,0.1,109.8c-91.6,0-183.2,0-274.8,0
			C118,474.4,117.9,437.7,118,401.1z"/>
	</g>
</g>
<path class="st5" d="M316.4,234.2c-16.2-16.2-37.6-25-60.5-25s-44.3,8.9-60.5,25s-25,37.6-25,60.5c0,22.8,8.9,44.3,25,60.5
	s37.6,25,60.5,25c15.6,0,30.9-4.3,44.3-12.3c3.2-1.9,4.2-6,2.3-9.2c-1.9-3.2-6-4.2-9.2-2.3c-11.2,6.8-24.1,10.4-37.3,10.4
	c-37.5,0-68.5-28.8-71.8-65.5h42.5c3,13.4,15,23.4,29.3,23.4s26.3-10,29.3-23.4h42.5c-1.1,11.9-5.2,23.3-11.9,33.4
	c-2.1,3.1-1.2,7.2,1.8,9.3c3.1,2.1,7.2,1.2,9.3-1.8c9.5-14.2,14.5-30.6,14.5-47.5C341.4,271.8,332.5,250.3,316.4,234.2z
	 M255.9,222.5c37.5,0,68.5,28.8,71.8,65.5h-42.5c-3-13.4-15-23.4-29.3-23.4s-26.3,10-29.3,23.4h-42.5
	C187.4,251.3,218.4,222.5,255.9,222.5z M255.9,311.4c-9.2,0-16.7-7.5-16.7-16.7c0-9.2,7.5-16.7,16.7-16.7c9.2,0,16.7,7.5,16.7,16.7
	C272.6,303.9,265.1,311.4,255.9,311.4z"/>
</svg>
