<svg id="Layer_1" data-name="Layer 1" xmlns="http://www.w3.org/2000/svg" viewBox="0 0 15 18.49"><defs><style>.cls-1{fill:none;stroke:#fff;stroke-miterlimit:10;stroke-width:3px;}</style></defs><title>select-chevron</title><path d="M17.25,13.47l-.73.53h0L9.11,19.39A1.84,1.84,0,0,1,6.54,19l-.18-.25a1.86,1.86,0,0,1,.4-2.57L12.51,12,6.76,7.83a1.83,1.83,0,0,1-.41-2.56L6.53,5A1.84,1.84,0,0,1,9.09,4.6L16.53,10l.72.52a2.06,2.06,0,0,1,.31.28l.09.12A1.85,1.85,0,0,1,17.25,13.47Z" transform="translate(-4.5 -2.76)"/><path class="cls-1" d="M17.25,13.47l-.73.53h0L9.11,19.39A1.84,1.84,0,0,1,6.54,19l-.18-.25a1.86,1.86,0,0,1,.4-2.57L12.51,12,6.76,7.83a1.83,1.83,0,0,1-.41-2.56L6.53,5A1.84,1.84,0,0,1,9.09,4.6L16.53,10l.72.52a2.06,2.06,0,0,1,.31.28l.09.12A1.85,1.85,0,0,1,17.25,13.47Z" transform="translate(-4.5 -2.76)"/><path d="M17.25,13.47l-.73.53h0L9.11,19.39A1.84,1.84,0,0,1,6.54,19l-.18-.25a1.86,1.86,0,0,1,.4-2.57L12.51,12,6.76,7.83a1.83,1.83,0,0,1-.41-2.56L6.53,5A1.84,1.84,0,0,1,9.09,4.6L16.53,10l.72.52a2.06,2.06,0,0,1,.31.28l.09.12A1.85,1.85,0,0,1,17.25,13.47Z" transform="translate(-4.5 -2.76)"/></svg>