<?xml version="1.0" encoding="UTF-8"?>
<svg width="14px" height="14px" viewBox="0 0 14 14" version="1.1" xmlns="http://www.w3.org/2000/svg" xmlns:xlink="http://www.w3.org/1999/xlink">
    <!-- Generator: Sketch 54.1 (76490) - https://sketchapp.com -->
    <title>Oval 7</title>
    <desc>Created with Sketch.</desc>
    <g id="Icons" stroke="none" stroke-width="1" fill="none" fill-rule="evenodd">
        <g id="Types/Dark-Copy" transform="translate(-13.000000, -13.000000)" fill="#000000">
            <g id="Group" transform="translate(5.000000, 5.000000)">
                <path d="M15,22 C18.8659932,22 22,18.8659932 22,15 C22,11.1340068 18.8659932,8 15,8 C11.1340068,8 8,11.1340068 8,15 C8,18.8659932 11.1340068,22 15,22 Z M14.2814773,20.3826159 C15.873894,19.3050126 16.9444444,17.2979844 16.9444444,15 C16.9444444,12.8142005 15.9758686,10.8916423 14.5109019,9.781777 C14.7034554,9.76077706 14.8990803,9.75 15.0972222,9.75 C18.0504115,9.75 20.4444444,12.1440329 20.4444444,15.0972222 C20.4444444,18.0504115 18.0504115,20.4444444 15.0972222,20.4444444 C14.8198686,20.4444444 14.547447,20.4233283 14.2814773,20.3826159 Z" id="Oval-7"></path>
            </g>
        </g>
    </g>
</svg>