<?xml version="1.0" encoding="iso-8859-1"?>
<!-- Generator: Adobe Illustrator 16.0.0, SVG Export Plug-In . SVG Version: 6.00 Build 0)  -->
<!DOCTYPE svg PUBLIC "-//W3C//DTD SVG 1.1//EN" "http://www.w3.org/Graphics/SVG/1.1/DTD/svg11.dtd">
<svg version="1.1" id="Capa_1" xmlns="http://www.w3.org/2000/svg" xmlns:xlink="http://www.w3.org/1999/xlink" x="0px" y="0px"
	 width="31.949px" height="31.949px" viewBox="0 0 31.949 31.949" style="enable-background:new 0 0 31.949 31.949;"
	 xml:space="preserve">
<g>
	<path d="M26.822,10.846C26.822,4.868,21.955,0,15.976,0C9.995,0,5.127,4.867,5.127,10.846c0,5.2,3.675,9.557,8.566,10.604v2.524
		H11.28c-1.162,0-2.104,0.95-2.104,2.11c0,1.162,0.942,2.111,2.104,2.111h2.413v1.65c0,1.162,0.95,2.104,2.112,2.104
		c1.162,0,2.111-0.94,2.111-2.104v-1.65h2.534c1.161,0,2.103-0.949,2.103-2.111c0-1.16-0.941-2.11-2.103-2.11h-2.534V21.52
		C22.941,20.605,26.822,16.165,26.822,10.846z M9.336,10.846c0-3.661,2.978-6.637,6.637-6.637c3.661,0,6.636,2.976,6.636,6.637
		c0,3.66-2.976,6.639-6.636,6.639C12.313,17.484,9.336,14.506,9.336,10.846z"/>
</g>
<g>
</g>
<g>
</g>
<g>
</g>
<g>
</g>
<g>
</g>
<g>
</g>
<g>
</g>
<g>
</g>
<g>
</g>
<g>
</g>
<g>
</g>
<g>
</g>
<g>
</g>
<g>
</g>
<g>
</g>
</svg>
