<?xml version="1.0" encoding="UTF-8"?>
<svg width="14px" height="15px" viewBox="0 0 14 15" version="1.1" xmlns="http://www.w3.org/2000/svg" xmlns:xlink="http://www.w3.org/1999/xlink">
    <!-- Generator: Sketch 54.1 (76490) - https://sketchapp.com -->
    <title>Oval 9</title>
    <desc>Created with Sketch.</desc>
    <g id="Icons" stroke="none" stroke-width="1" fill="none" fill-rule="evenodd">
        <g id="Types/Fight-Copy" transform="translate(-13.000000, -13.000000)" fill="#000000">
            <g id="Group" transform="translate(5.000000, 5.000000)">
                <path d="M10.0872508,9.2457504 C10.2692338,8.5296785 10.9182149,8 11.6909091,8 C12.2732775,8 12.7853717,8.30087958 13.0802229,8.75566982 C13.1257122,8.75191481 13.1717234,8.75 13.2181818,8.75 C13.3254989,8.75 13.4304297,8.76021727 13.5320543,8.77973214 C13.8342316,8.45390935 14.2660303,8.25 14.7454545,8.25 C15.4267409,8.25 16.0118529,8.6617717 16.2654908,9.25001549 C16.2679017,9.25000517 16.2703139,9.25 16.2727273,9.25 C16.3903808,9.25 16.5051661,9.26228024 16.6158713,9.28562887 C16.8808206,9.10536127 17.2008334,9 17.5454545,9 C18.2606674,9 18.8698888,9.45380339 19.1008875,10.0891789 C19.2262532,10.132196 19.3448191,10.1898494 19.4545455,10.2600991 C19.7117129,10.0954537 20.0174365,10 20.3454545,10 C21.2592348,10 22,10.7407652 22,11.6545455 L22,16.6491225 C22,16.6587448 21.999921,16.6683557 21.9997635,16.6779542 C21.9685272,20.1743894 18.8465928,23 15,23 C11.1340068,23 8,20.1458153 8,16.625 C8,14.9298843 8.72646069,13.3892932 9.91131407,12.2473599 C9.89974473,14.4957858 9.95415165,15.6062793 10.0745348,15.5788405 C10.3287771,15.5208914 10.3330158,13.4098614 10.0872508,9.2457504 Z" id="Oval-9"></path>
            </g>
        </g>
    </g>
</svg>