<?xml version="1.0" encoding="UTF-8"?>
<svg width="12px" height="15px" viewBox="0 0 12 15" version="1.1" xmlns="http://www.w3.org/2000/svg" xmlns:xlink="http://www.w3.org/1999/xlink">
    <!-- Generator: Sketch 54.1 (76490) - https://sketchapp.com -->
    <title>Path 2</title>
    <desc>Created with Sketch.</desc>
    <g id="Icons" stroke="none" stroke-width="1" fill="none" fill-rule="evenodd">
        <g id="Types/Fire-Copy" transform="translate(-14.000000, -13.000000)" fill="#000000">
            <g id="Group" transform="translate(5.000000, 5.000000)">
                <path d="M15.2850506,19.5928533 C15.7785078,19.3531789 16.11789,18.8534241 16.11789,18.2757487 C16.11789,17.4648672 15.4491827,16.8075179 14.6242904,16.8075179 C13.7993981,16.8075179 13.1306908,17.4648672 13.1306908,18.2757487 C13.1306908,18.4974425 13.1806745,18.7076602 13.2701681,18.8961061 C12.9268135,18.6280224 12.7277008,18.2711677 12.6728302,17.8255419 C12.288766,19.4201359 12.6258779,20.592486 13.6841658,21.342592 C14.7424537,22.0926981 16.3081614,22.1453806 18.3812889,21.5006394 C15.4145079,23.5881291 12.8319118,23.495883 10.6335007,21.2239012 C8.73973398,19.2667588 8.49259299,16.9998715 9.89207774,14.4232393 C9.83163703,14.6622656 9.80141668,14.9205154 9.80141668,15.1979887 C9.80141668,15.475462 9.87663645,15.7197553 10.027076,15.9308687 C10.4758301,14.9849672 10.8748325,14.3196783 11.2240831,13.935002 C12.101551,12.9685293 13.3727918,12.3252202 13.8713265,11.7677713 C14.6675021,10.8775078 14.821499,9.62158402 14.3333171,8 C15.2308225,8.79122519 15.8048584,9.69777678 16.0554246,10.7196548 C16.431274,12.2524717 15.1868352,14.3393148 16.7487072,14.2575431 C17.7899553,14.2030287 17.8581767,13.3731047 16.9533716,11.7677713 C19.3153199,13.0091875 20.4080624,14.7154903 20.2315992,16.8866796 C20.0551359,19.057869 18.7642717,20.3902613 16.3590065,20.8838564 C16.9879716,20.3674624 17.3634686,19.8861819 17.4854976,19.4400151 C17.6075265,18.9938483 17.5501138,18.3121366 17.3132595,17.3948801 C17.1414795,18.1421247 16.9213713,18.6538308 16.6529351,18.9299984 C16.3094527,19.2833736 15.8886206,19.5284535 15.2850506,19.5928533 Z" id="Path-2"></path>
            </g>
        </g>
    </g>
</svg>