<?xml version="1.0" encoding="UTF-8"?>
<svg width="14px" height="14px" viewBox="0 0 14 14" version="1.1" xmlns="http://www.w3.org/2000/svg" xmlns:xlink="http://www.w3.org/1999/xlink">
    <!-- Generator: Sketch 54.1 (76490) - https://sketchapp.com -->
    <title>Oval 10</title>
    <desc>Created with Sketch.</desc>
    <g id="Icons" stroke="none" stroke-width="1" fill="none" fill-rule="evenodd">
        <g id="Types/Ghost-Copy" transform="translate(-13.000000, -13.000000)" fill="#000000">
            <g id="Group" transform="translate(5.000000, 5.000000)">
                <path d="M12.3756532,13.0720305 C12.0483704,13.2572123 11.828125,13.6036985 11.828125,14.0005808 C11.828125,14.5923717 12.3178136,15.0721131 12.921875,15.0721131 C13.5259364,15.0721131 14.015625,14.5923717 14.015625,14.0005808 L13.3393791,14.0005808 C12.8187626,14.0005808 12.3944995,13.5880429 12.3756532,13.0720305 Z M15.765625,14.0005808 C15.765625,14.5923717 16.2553136,15.0721131 16.859375,15.0721131 C17.4634364,15.0721131 17.953125,14.5923717 17.953125,14.0005808 C17.953125,13.6036985 17.7328796,13.2572123 17.4055968,13.0720305 C17.3867505,13.5880429 16.9624874,14.0005808 16.4418709,14.0005808 L15.765625,14.0005808 Z M14.8886483,21.9515212 C11.0562157,21.4473286 8,18.6452686 8,14.8578066 C8,11.0703446 11.1340068,8 15,8 C18.8659932,8 22,11.0703446 22,14.8578066 C22,16.6193277 21.3220791,18.2257282 20.2078919,19.4402622 C19.6086228,20.0935033 21.8249099,20.3604297 21.3318181,21.0351046 C21.0628145,21.4031701 19.6044771,21.8739267 18.0885434,21.9515212 C16.8257254,22.0161596 15.3799735,22.0161596 14.8886483,21.9515212 Z" id="Oval-10"></path>
            </g>
        </g>
    </g>
</svg>