<?xml version="1.0" encoding="UTF-8"?>
<svg width="13px" height="14px" viewBox="0 0 13 14" version="1.1" xmlns="http://www.w3.org/2000/svg" xmlns:xlink="http://www.w3.org/1999/xlink">
    <!-- Generator: Sketch 54.1 (76490) - https://sketchapp.com -->
    <title>Oval</title>
    <desc>Created with Sketch.</desc>
    <g id="Icons" stroke="none" stroke-width="1" fill="none" fill-rule="evenodd">
        <g id="Types/Grass-Copy" transform="translate(-13.000000, -14.000000)" fill="#000000">
            <g id="Group" transform="translate(5.000000, 5.000000)">
                <path d="M16.2283811,22.9000487 L15.9196767,19.8735532 L17.6229795,17.2322592 L15.6724679,18.8282227 L15.6519626,16.5538856 L16.6537372,14.990099 L15.3389845,15.7040295 L14.5234846,12.8598464 L14.6990239,15.9210058 L13.3556357,15.6919379 L14.8499065,16.7939298 L14.9778615,18.931738 L13.0787248,17.9642892 L14.9848372,19.8704015 L15.3122088,22.9970646 C15.2486507,22.9990168 15.1848487,23 15.1208171,23 C11.7403831,23 9,20.2596169 9,16.8791829 C9,14.6255603 10.7575331,11.6658327 14.2725992,8 C18.9186225,11.6658327 21.2416341,14.6255603 21.2416341,16.8791829 C21.2416341,19.881438 19.0801027,22.3788403 16.2283811,22.9000487 Z" id="Oval" transform="translate(15.120817, 15.500000) rotate(45.000000) translate(-15.120817, -15.500000) "></path>
            </g>
        </g>
    </g>
</svg>