<?xml version="1.0" encoding="UTF-8"?>
<svg width="18px" height="16px" viewBox="0 0 18 16" version="1.1" xmlns="http://www.w3.org/2000/svg" xmlns:xlink="http://www.w3.org/1999/xlink">
    <!-- Generator: Sketch 54.1 (76490) - https://sketchapp.com -->
    <title>Group 3</title>
    <desc>Created with Sketch.</desc>
    <g id="Icons" stroke="none" stroke-width="1" fill="none" fill-rule="evenodd">
        <g id="Types/Ice-Copy" transform="translate(-11.000000, -12.000000)" fill="#000000">
            <g id="Group" transform="translate(5.000000, 5.000000)">
                <g id="Group-2" transform="translate(5.500000, 5.500000)">
                    <g id="Group-3" transform="translate(0.922954, 0.713023)">
                        <polygon id="Polygon" transform="translate(10.817178, 4.904410) rotate(31.000000) translate(-10.817178, -4.904410) " points="10.766586 1.10625844 13.1689538 5.00324934 10.7336904 8.70256163 8.46540216 5.02306728"></polygon>
                        <polygon id="Polygon" transform="translate(12.780415, 8.926429) rotate(89.000000) translate(-12.780415, -8.926429) " points="12.758972 4.97338026 14.9504408 8.96475258 12.6173861 12.8794778 10.6103896 8.89103599"></polygon>
                        <polygon id="Polygon-Copy" transform="translate(4.170026, 8.926429) rotate(89.000000) translate(-4.170026, -8.926429) " points="4.14858239 4.97338026 6.34005121 8.96475258 4.00699649 12.8794778 2 8.89103599"></polygon>
                        <polygon id="Polygon" transform="translate(6.180808, 4.798152) rotate(-32.000000) translate(-6.180808, -4.798152) " points="6.1302159 1 8.53258371 4.8969909 6.09732035 8.5963032 3.82903207 4.91680884"></polygon>
                        <polygon id="Polygon" transform="translate(10.786043, 12.804546) rotate(148.000000) translate(-10.786043, -12.804546) " points="10.7354511 9.00639487 13.1378189 12.9033858 10.7025555 16.6026981 8.43426721 12.9232037"></polygon>
                        <polygon id="Polygon" transform="translate(6.179699, 12.758248) rotate(211.000000) translate(-6.179699, -12.758248) " points="6.12910717 8.96009656 8.53147497 12.8570875 6.09621161 16.5563998 3.82792333 12.8769054"></polygon>
                    </g>
                </g>
            </g>
        </g>
    </g>
</svg>