<?xml version="1.0" encoding="UTF-8"?>
<svg width="15px" height="15px" viewBox="0 0 15 15" version="1.1" xmlns="http://www.w3.org/2000/svg" xmlns:xlink="http://www.w3.org/1999/xlink">
    <!-- Generator: Sketch 54.1 (76490) - https://sketchapp.com -->
    <title>Oval 3</title>
    <desc>Created with Sketch.</desc>
    <g id="Icons" stroke="none" stroke-width="1" fill="none" fill-rule="evenodd">
        <g id="Types/Poison-Copy" transform="translate(-13.000000, -13.000000)" fill="#000000">
            <g id="Group" transform="translate(5.000000, 5.000000)">
                <path d="M13.8223684,21.7476763 C13.4741691,22.4994674 12.8530231,23 12.1447368,23 C11.0547012,23 10.1710526,21.8145146 10.1710526,20.3521443 C10.1710526,20.0140813 10.2182763,19.6908156 10.3043566,19.3935722 C8.88399653,18.1890457 8,16.4954589 8,14.6196393 C8,10.9637135 11.3578644,8 15.5,8 C19.6421356,8 23,10.9637135 23,14.6196393 C23,16.5657119 22.0485489,18.3156461 20.5338193,19.5268335 C20.5972649,19.7865498 20.6315789,20.063971 20.6315789,20.3521443 C20.6315789,21.8145146 19.7479304,23 18.6578947,23 C18.0122636,23 17.4390377,22.584105 17.0789474,21.9411159 C16.7188571,22.584105 16.1456312,23 15.5,23 C14.7917138,23 14.1705678,22.4994674 13.8223684,21.7476763 Z M15.4013158,18.111651 C17.8538961,18.111651 19.8421053,16.6069965 19.8421053,14.750911 C19.8421053,12.8948256 17.8538961,11.3901711 15.4013158,11.3901711 C12.9487355,11.3901711 10.9605263,12.8948256 10.9605263,14.750911 C10.9605263,16.6069965 12.9487355,18.111651 15.4013158,18.111651 Z" id="Oval-3"></path>
            </g>
        </g>
    </g>
</svg>