<?xml version="1.0" encoding="UTF-8"?>
<svg width="16px" height="13px" viewBox="0 0 16 13" version="1.1" xmlns="http://www.w3.org/2000/svg" xmlns:xlink="http://www.w3.org/1999/xlink">
    <!-- Generator: Sketch 54.1 (76490) - https://sketchapp.com -->
    <title>Path 7</title>
    <desc>Created with Sketch.</desc>
    <g id="Icons" stroke="none" stroke-width="1" fill="none" fill-rule="evenodd">
        <g id="Types/Steel-Copy" transform="translate(-12.000000, -14.000000)" fill="#000000">
            <g id="Group" transform="translate(5.000000, 5.000000)">
                <path d="M7.55111133,15.6918752 C7.48299593,15.5756275 7.48296064,15.4316589 7.55101905,15.3153779 L11.1394665,9.18434626 C11.2062942,9.07016799 11.3286661,9 11.4609636,9 L18.5771946,9 C18.71013,9 18.8329913,9.07084063 18.8995903,9.18589012 L22.448676,15.3169226 C22.5155357,15.4324225 22.515501,15.5748644 22.4485849,15.6903317 L18.8996203,21.814267 C18.8329977,21.9292279 18.7101861,22 18.5773156,22 L11.4608423,22 C11.32861,22 11.2062882,21.9299006 11.1394375,21.8158113 L7.55111133,15.6918752 Z M15,19 C16.9329966,19 18.5,17.4329966 18.5,15.5 C18.5,13.5670034 16.9329966,12 15,12 C13.0670034,12 11.5,13.5670034 11.5,15.5 C11.5,17.4329966 13.0670034,19 15,19 Z" id="Path-7"></path>
            </g>
        </g>
    </g>
</svg>