<?xml version="1.0" encoding="UTF-8"?>
<svg width="10px" height="15px" viewBox="0 0 10 15" version="1.1" xmlns="http://www.w3.org/2000/svg" xmlns:xlink="http://www.w3.org/1999/xlink">
    <!-- Generator: Sketch 54.1 (76490) - https://sketchapp.com -->
    <title>Oval 5</title>
    <desc>Created with Sketch.</desc>
    <g id="Icons" stroke="none" stroke-width="1" fill="none" fill-rule="evenodd">
        <g id="Types/Water-Copy" transform="translate(-15.000000, -13.000000)" fill="#000000">
            <g id="Group" transform="translate(5.000000, 5.000000)">
                <path d="M15,23 C12.2385763,23 10,20.7698371 10,18.0187917 C10,16.2637033 11.5262784,13.0006768 14.5788353,8.2297122 C14.617828,8.16876903 14.6695826,8.11701441 14.7305258,8.07802176 C14.9631213,7.92920254 15.272319,7.99711664 15.4211382,8.22971214 L15.421157,8.22970016 C18.473719,13.0006713 20,16.2637018 20,18.0187917 C20,20.7698371 17.7614237,23 15,23 Z M12.0634415,18.0373204 C11.7739891,19.9110348 12.4750083,21.0329453 14.166499,21.4030518 C15.8579897,21.7731582 17.1860714,21.3145064 18.1507442,20.0270963 C16.7961859,20.5644462 15.558469,20.6499291 14.4375934,20.2835449 C13.3167178,19.9171608 12.5253338,19.1684193 12.0634415,18.0373204 Z" id="Oval-5"></path>
            </g>
        </g>
    </g>
</svg>